<mxfile host="app.diagrams.net" agent="Mozilla/5.0 (X11; Linux x86_64; rv:128.0) Gecko/20100101 Firefox/128.0" version="28.0.1">
  <diagram name="Page-1" id="kGGoCta5J3qilqrS-jrD">
    <mxGraphModel dx="1336" dy="993" grid="1" gridSize="10" guides="1" tooltips="1" connect="1" arrows="1" fold="1" page="1" pageScale="1" pageWidth="850" pageHeight="1100" math="0" shadow="0">
      <root>
        <mxCell id="0" />
        <mxCell id="1" parent="0" />
        <mxCell id="CIBMW8DHXz47iNcufc1j-1" value="Thread:&lt;br&gt;igtl server" style="rounded=0;whiteSpace=wrap;html=1;" vertex="1" parent="1">
          <mxGeometry x="150" y="20" width="150" height="60" as="geometry" />
        </mxCell>
        <mxCell id="CIBMW8DHXz47iNcufc1j-2" value="Thread:&lt;br&gt;dbus server" style="rounded=0;whiteSpace=wrap;html=1;" vertex="1" parent="1">
          <mxGeometry x="330" y="20" width="120" height="60" as="geometry" />
        </mxCell>
        <mxCell id="CIBMW8DHXz47iNcufc1j-3" value="Thread:&lt;br&gt;process monitor" style="rounded=0;whiteSpace=wrap;html=1;" vertex="1" parent="1">
          <mxGeometry x="490" y="20" width="120" height="60" as="geometry" />
        </mxCell>
        <mxCell id="CIBMW8DHXz47iNcufc1j-4" value="Action:" style="rounded=1;whiteSpace=wrap;html=1;" vertex="1" parent="1">
          <mxGeometry x="20" y="760" width="120" height="60" as="geometry" />
        </mxCell>
        <mxCell id="CIBMW8DHXz47iNcufc1j-5" value="&lt;font style=&quot;font-size: 14px&quot;&gt;Actions:&lt;br&gt;1. when CC Dbus Server receive SDR hello, mark sdr running;&lt;br&gt;2. periodic inspect /proc&amp;nbsp; that SDR still in running and PID not change;&lt;br&gt;3. if state from normal to abnormal, need send Message to PIU reset PIU&#39;s status; expecially when HW in running, must terminate it.&lt;br&gt;&lt;br&gt;&lt;/font&gt;" style="text;html=1;strokeColor=default;fillColor=none;align=left;verticalAlign=top;whiteSpace=wrap;rounded=0;dashed=1;" vertex="1" parent="1">
          <mxGeometry x="20" y="660" width="440" height="320" as="geometry" />
        </mxCell>
        <mxCell id="CIBMW8DHXz47iNcufc1j-6" value="" style="endArrow=none;html=1;rounded=0;fontSize=14;entryX=0.5;entryY=1;entryDx=0;entryDy=0;startArrow=none;" edge="1" parent="1" source="CIBMW8DHXz47iNcufc1j-13" target="CIBMW8DHXz47iNcufc1j-3">
          <mxGeometry width="50" height="50" relative="1" as="geometry">
            <mxPoint x="550" y="620" as="sourcePoint" />
            <mxPoint x="590" y="170" as="targetPoint" />
          </mxGeometry>
        </mxCell>
        <mxCell id="CIBMW8DHXz47iNcufc1j-7" value="" style="endArrow=none;html=1;rounded=0;fontSize=14;entryX=0.5;entryY=1;entryDx=0;entryDy=0;startArrow=none;" edge="1" parent="1" source="CIBMW8DHXz47iNcufc1j-24">
          <mxGeometry width="50" height="50" relative="1" as="geometry">
            <mxPoint x="229.5" y="620" as="sourcePoint" />
            <mxPoint x="229.5" y="80" as="targetPoint" />
          </mxGeometry>
        </mxCell>
        <mxCell id="CIBMW8DHXz47iNcufc1j-8" value="" style="endArrow=none;html=1;rounded=0;fontSize=14;entryX=0.5;entryY=1;entryDx=0;entryDy=0;" edge="1" parent="1">
          <mxGeometry width="50" height="50" relative="1" as="geometry">
            <mxPoint x="389.5" y="620" as="sourcePoint" />
            <mxPoint x="389.5" y="80" as="targetPoint" />
          </mxGeometry>
        </mxCell>
        <mxCell id="CIBMW8DHXz47iNcufc1j-9" value="proactive send CMD to PIU;" style="rounded=1;whiteSpace=wrap;html=1;fontSize=14;" vertex="1" parent="1">
          <mxGeometry x="170" y="310" width="120" height="60" as="geometry" />
        </mxCell>
        <mxCell id="CIBMW8DHXz47iNcufc1j-10" value="&lt;span style=&quot;text-align: left&quot;&gt;periodic inspect /proc&amp;nbsp; that SDR still in running and PID not change;&lt;/span&gt;" style="rounded=1;whiteSpace=wrap;html=1;fontSize=14;" vertex="1" parent="1">
          <mxGeometry x="490" y="270" width="120" height="90" as="geometry" />
        </mxCell>
        <mxCell id="CIBMW8DHXz47iNcufc1j-11" value="broken" style="edgeStyle=orthogonalEdgeStyle;rounded=0;orthogonalLoop=1;jettySize=auto;html=1;exitX=0;exitY=0.5;exitDx=0;exitDy=0;entryX=1;entryY=0.5;entryDx=0;entryDy=0;fontSize=14;" edge="1" parent="1" source="CIBMW8DHXz47iNcufc1j-13" target="CIBMW8DHXz47iNcufc1j-9">
          <mxGeometry relative="1" as="geometry" />
        </mxCell>
        <mxCell id="CIBMW8DHXz47iNcufc1j-12" value="normal" style="edgeStyle=orthogonalEdgeStyle;rounded=0;orthogonalLoop=1;jettySize=auto;html=1;entryX=1;entryY=0.5;entryDx=0;entryDy=0;fontSize=14;" edge="1" parent="1" source="CIBMW8DHXz47iNcufc1j-13" target="CIBMW8DHXz47iNcufc1j-10">
          <mxGeometry relative="1" as="geometry">
            <Array as="points">
              <mxPoint x="630" y="470" />
              <mxPoint x="630" y="315" />
            </Array>
          </mxGeometry>
        </mxCell>
        <mxCell id="CIBMW8DHXz47iNcufc1j-13" value="normal broken?" style="rhombus;whiteSpace=wrap;html=1;fontSize=14;" vertex="1" parent="1">
          <mxGeometry x="510" y="430" width="80" height="80" as="geometry" />
        </mxCell>
        <mxCell id="CIBMW8DHXz47iNcufc1j-14" value="" style="endArrow=none;html=1;rounded=0;fontSize=14;entryX=0.5;entryY=1;entryDx=0;entryDy=0;" edge="1" parent="1" target="CIBMW8DHXz47iNcufc1j-13">
          <mxGeometry width="50" height="50" relative="1" as="geometry">
            <mxPoint x="550" y="620" as="sourcePoint" />
            <mxPoint x="550" y="80" as="targetPoint" />
          </mxGeometry>
        </mxCell>
        <mxCell id="CIBMW8DHXz47iNcufc1j-15" style="edgeStyle=orthogonalEdgeStyle;rounded=0;orthogonalLoop=1;jettySize=auto;html=1;exitX=1;exitY=0.5;exitDx=0;exitDy=0;fontSize=14;" edge="1" parent="1" source="CIBMW8DHXz47iNcufc1j-16" target="CIBMW8DHXz47iNcufc1j-18">
          <mxGeometry relative="1" as="geometry" />
        </mxCell>
        <mxCell id="CIBMW8DHXz47iNcufc1j-16" value="siho processes Hello" style="rounded=1;whiteSpace=wrap;html=1;fontSize=14;" vertex="1" parent="1">
          <mxGeometry x="330" y="100" width="120" height="60" as="geometry" />
        </mxCell>
        <mxCell id="CIBMW8DHXz47iNcufc1j-17" style="edgeStyle=orthogonalEdgeStyle;rounded=0;orthogonalLoop=1;jettySize=auto;html=1;exitX=1;exitY=0.5;exitDx=0;exitDy=0;fontSize=14;" edge="1" parent="1" source="CIBMW8DHXz47iNcufc1j-18" target="CIBMW8DHXz47iNcufc1j-22">
          <mxGeometry relative="1" as="geometry" />
        </mxCell>
        <mxCell id="CIBMW8DHXz47iNcufc1j-18" value="add it to monitor list" style="rounded=1;whiteSpace=wrap;html=1;fontSize=14;" vertex="1" parent="1">
          <mxGeometry x="500" y="120" width="120" height="60" as="geometry" />
        </mxCell>
        <mxCell id="CIBMW8DHXz47iNcufc1j-19" style="edgeStyle=orthogonalEdgeStyle;rounded=0;orthogonalLoop=1;jettySize=auto;html=1;exitX=0.5;exitY=1;exitDx=0;exitDy=0;entryX=0.5;entryY=0;entryDx=0;entryDy=0;fontSize=14;" edge="1" parent="1" source="CIBMW8DHXz47iNcufc1j-22" target="CIBMW8DHXz47iNcufc1j-10">
          <mxGeometry relative="1" as="geometry" />
        </mxCell>
        <mxCell id="CIBMW8DHXz47iNcufc1j-20" value="all present" style="edgeLabel;html=1;align=center;verticalAlign=middle;resizable=0;points=[];fontSize=14;" vertex="1" connectable="0" parent="CIBMW8DHXz47iNcufc1j-19">
          <mxGeometry x="0.175" y="2" relative="1" as="geometry">
            <mxPoint as="offset" />
          </mxGeometry>
        </mxCell>
        <mxCell id="CIBMW8DHXz47iNcufc1j-21" value="still absent" style="edgeStyle=orthogonalEdgeStyle;rounded=0;orthogonalLoop=1;jettySize=auto;html=1;exitX=0.5;exitY=0;exitDx=0;exitDy=0;entryX=0.933;entryY=-0.017;entryDx=0;entryDy=0;entryPerimeter=0;fontSize=14;" edge="1" parent="1" source="CIBMW8DHXz47iNcufc1j-22" target="CIBMW8DHXz47iNcufc1j-18">
          <mxGeometry relative="1" as="geometry" />
        </mxCell>
        <mxCell id="CIBMW8DHXz47iNcufc1j-22" value="all process in list?" style="rhombus;whiteSpace=wrap;html=1;fontSize=14;" vertex="1" parent="1">
          <mxGeometry x="670" y="110" width="80" height="80" as="geometry" />
        </mxCell>
        <mxCell id="CIBMW8DHXz47iNcufc1j-23" value="*send RST to PIU On first PIU connection." style="rounded=1;whiteSpace=wrap;html=1;dashed=1;fontSize=14;strokeColor=default;" vertex="1" parent="1">
          <mxGeometry x="170" y="90" width="120" height="60" as="geometry" />
        </mxCell>
        <mxCell id="CIBMW8DHXz47iNcufc1j-24" value="&lt;br&gt;read status from PIU;" style="rounded=1;whiteSpace=wrap;html=1;fontSize=14;" vertex="1" parent="1">
          <mxGeometry x="170" y="200" width="120" height="60" as="geometry" />
        </mxCell>
        <mxCell id="CIBMW8DHXz47iNcufc1j-25" value="" style="endArrow=none;html=1;rounded=0;fontSize=14;entryX=0.5;entryY=1;entryDx=0;entryDy=0;" edge="1" parent="1" target="CIBMW8DHXz47iNcufc1j-24">
          <mxGeometry width="50" height="50" relative="1" as="geometry">
            <mxPoint x="229.5" y="620" as="sourcePoint" />
            <mxPoint x="229.5" y="80" as="targetPoint" />
          </mxGeometry>
        </mxCell>
        <mxCell id="CIBMW8DHXz47iNcufc1j-26" value="Cross-Functional Flowchart" style="shape=table;childLayout=tableLayout;startSize=40;collapsible=0;recursiveResize=0;expand=0;" vertex="1" parent="1">
          <mxGeometry x="610" y="660" width="400" height="280" as="geometry" />
        </mxCell>
        <mxCell id="CIBMW8DHXz47iNcufc1j-27" value="" style="swimlane;horizontal=0;swimlaneHead=0;swimlaneBody=0;fontStyle=0;fillColor=none;points=[[0,0.5],[1,0.5]];portConstraint=eastwest;startSize=40;collapsible=0;recursiveResize=0;expand=0;" vertex="1" parent="CIBMW8DHXz47iNcufc1j-26">
          <mxGeometry y="40" width="400" height="120" as="geometry" />
        </mxCell>
        <mxCell id="CIBMW8DHXz47iNcufc1j-28" value="" style="swimlane;swimlaneHead=0;swimlaneBody=0;fontStyle=0;connectable=0;fillColor=none;startSize=40;collapsible=0;recursiveResize=0;expand=0;" vertex="1" parent="CIBMW8DHXz47iNcufc1j-27">
          <mxGeometry x="40" width="120" height="120" as="geometry">
            <mxRectangle width="120" height="120" as="alternateBounds" />
          </mxGeometry>
        </mxCell>
        <mxCell id="CIBMW8DHXz47iNcufc1j-29" value="" style="swimlane;swimlaneHead=0;swimlaneBody=0;fontStyle=0;connectable=0;fillColor=none;startSize=40;collapsible=0;recursiveResize=0;expand=0;" vertex="1" parent="CIBMW8DHXz47iNcufc1j-27">
          <mxGeometry x="160" width="120" height="120" as="geometry">
            <mxRectangle width="120" height="120" as="alternateBounds" />
          </mxGeometry>
        </mxCell>
        <mxCell id="CIBMW8DHXz47iNcufc1j-30" value="" style="swimlane;swimlaneHead=0;swimlaneBody=0;fontStyle=0;connectable=0;fillColor=none;startSize=40;collapsible=0;recursiveResize=0;expand=0;" vertex="1" parent="CIBMW8DHXz47iNcufc1j-27">
          <mxGeometry x="280" width="120" height="120" as="geometry">
            <mxRectangle width="120" height="120" as="alternateBounds" />
          </mxGeometry>
        </mxCell>
        <mxCell id="CIBMW8DHXz47iNcufc1j-31" value="" style="swimlane;horizontal=0;swimlaneHead=0;swimlaneBody=0;fontStyle=0;fillColor=none;points=[[0,0.5],[1,0.5]];portConstraint=eastwest;startSize=40;collapsible=0;recursiveResize=0;expand=0;" vertex="1" parent="CIBMW8DHXz47iNcufc1j-26">
          <mxGeometry y="160" width="400" height="120" as="geometry" />
        </mxCell>
        <mxCell id="CIBMW8DHXz47iNcufc1j-32" value="" style="swimlane;swimlaneHead=0;swimlaneBody=0;fontStyle=0;connectable=0;fillColor=none;startSize=0;collapsible=0;recursiveResize=0;expand=0;" vertex="1" parent="CIBMW8DHXz47iNcufc1j-31">
          <mxGeometry x="40" width="120" height="120" as="geometry">
            <mxRectangle width="120" height="120" as="alternateBounds" />
          </mxGeometry>
        </mxCell>
        <mxCell id="CIBMW8DHXz47iNcufc1j-33" value="" style="swimlane;swimlaneHead=0;swimlaneBody=0;fontStyle=0;connectable=0;fillColor=none;startSize=0;collapsible=0;recursiveResize=0;expand=0;" vertex="1" parent="CIBMW8DHXz47iNcufc1j-31">
          <mxGeometry x="160" width="120" height="120" as="geometry">
            <mxRectangle width="120" height="120" as="alternateBounds" />
          </mxGeometry>
        </mxCell>
        <mxCell id="CIBMW8DHXz47iNcufc1j-34" value="" style="swimlane;swimlaneHead=0;swimlaneBody=0;fontStyle=0;connectable=0;fillColor=none;startSize=0;collapsible=0;recursiveResize=0;expand=0;" vertex="1" parent="CIBMW8DHXz47iNcufc1j-31">
          <mxGeometry x="280" width="120" height="120" as="geometry">
            <mxRectangle width="120" height="120" as="alternateBounds" />
          </mxGeometry>
        </mxCell>
        <mxCell id="CIBMW8DHXz47iNcufc1j-35" value="use" style="edgeStyle=orthogonalEdgeStyle;rounded=0;orthogonalLoop=1;jettySize=auto;html=1;" edge="1" parent="1" source="CIBMW8DHXz47iNcufc1j-36" target="CIBMW8DHXz47iNcufc1j-56">
          <mxGeometry relative="1" as="geometry" />
        </mxCell>
        <mxCell id="CIBMW8DHXz47iNcufc1j-36" value="ControlCoreMsgServer" style="rounded=1;whiteSpace=wrap;html=1;" vertex="1" parent="1">
          <mxGeometry x="188" y="1221" width="171" height="60" as="geometry" />
        </mxCell>
        <mxCell id="CIBMW8DHXz47iNcufc1j-37" value="&lt;h1&gt;Class Dependency&lt;/h1&gt;&lt;p&gt;below for the dependencies of classed in CC;&lt;/p&gt;" style="text;html=1;strokeColor=default;fillColor=#B9E0A5;spacing=5;spacingTop=-20;whiteSpace=wrap;overflow=hidden;rounded=0;" vertex="1" parent="1">
          <mxGeometry x="20" y="1005" width="640" height="120" as="geometry" />
        </mxCell>
        <mxCell id="CIBMW8DHXz47iNcufc1j-38" value="dbus-Msg-Proxy" style="rounded=1;whiteSpace=wrap;html=1;strokeColor=default;fillColor=#B9E0A5;" vertex="1" parent="1">
          <mxGeometry x="20" y="1500" width="120" height="60" as="geometry" />
        </mxCell>
        <mxCell id="CIBMW8DHXz47iNcufc1j-39" value="depend on" style="edgeStyle=orthogonalEdgeStyle;rounded=0;orthogonalLoop=1;jettySize=auto;html=1;entryX=1;entryY=0.75;entryDx=0;entryDy=0;" edge="1" parent="1" source="CIBMW8DHXz47iNcufc1j-41" target="CIBMW8DHXz47iNcufc1j-38">
          <mxGeometry relative="1" as="geometry" />
        </mxCell>
        <mxCell id="CIBMW8DHXz47iNcufc1j-40" value="use" style="edgeStyle=orthogonalEdgeStyle;rounded=0;orthogonalLoop=1;jettySize=auto;html=1;exitX=0.25;exitY=1;exitDx=0;exitDy=0;entryX=1;entryY=0.133;entryDx=0;entryDy=0;entryPerimeter=0;" edge="1" parent="1" source="CIBMW8DHXz47iNcufc1j-41" target="CIBMW8DHXz47iNcufc1j-45">
          <mxGeometry relative="1" as="geometry" />
        </mxCell>
        <mxCell id="CIBMW8DHXz47iNcufc1j-41" value="&lt;strike&gt;PiuCmdControl&lt;/strike&gt;&lt;br&gt;SihoPiuMessageProcessor" style="rounded=1;whiteSpace=wrap;html=1;strokeColor=default;fillColor=#B9E0A5;" vertex="1" parent="1">
          <mxGeometry x="510" y="1374" width="200" height="80" as="geometry" />
        </mxCell>
        <mxCell id="CIBMW8DHXz47iNcufc1j-42" value="" style="endArrow=classic;html=1;rounded=0;entryX=0.575;entryY=-0.067;entryDx=0;entryDy=0;entryPerimeter=0;" edge="1" parent="1" source="CIBMW8DHXz47iNcufc1j-41" target="CIBMW8DHXz47iNcufc1j-46">
          <mxGeometry width="50" height="50" relative="1" as="geometry">
            <mxPoint x="670" y="1330" as="sourcePoint" />
            <mxPoint x="720" y="1280" as="targetPoint" />
          </mxGeometry>
        </mxCell>
        <mxCell id="CIBMW8DHXz47iNcufc1j-43" value="depend on" style="endArrow=classic;html=1;rounded=0;exitX=0.5;exitY=1;exitDx=0;exitDy=0;entryX=0.617;entryY=-0.067;entryDx=0;entryDy=0;entryPerimeter=0;" edge="1" parent="1" source="CIBMW8DHXz47iNcufc1j-36" target="CIBMW8DHXz47iNcufc1j-38">
          <mxGeometry width="50" height="50" relative="1" as="geometry">
            <mxPoint x="430" y="1360" as="sourcePoint" />
            <mxPoint x="480" y="1310" as="targetPoint" />
          </mxGeometry>
        </mxCell>
        <mxCell id="CIBMW8DHXz47iNcufc1j-44" value="" style="endArrow=classic;html=1;rounded=0;exitX=0.75;exitY=1;exitDx=0;exitDy=0;" edge="1" parent="1" source="CIBMW8DHXz47iNcufc1j-36" target="CIBMW8DHXz47iNcufc1j-41">
          <mxGeometry width="50" height="50" relative="1" as="geometry">
            <mxPoint x="400" y="1290" as="sourcePoint" />
            <mxPoint x="470" y="1330" as="targetPoint" />
            <Array as="points">
              <mxPoint x="316" y="1374" />
            </Array>
          </mxGeometry>
        </mxCell>
        <mxCell id="CIBMW8DHXz47iNcufc1j-45" value="RunStates" style="rounded=1;whiteSpace=wrap;html=1;strokeColor=default;fillColor=#B9E0A5;" vertex="1" parent="1">
          <mxGeometry x="314" y="1574" width="120" height="60" as="geometry" />
        </mxCell>
        <mxCell id="CIBMW8DHXz47iNcufc1j-46" value="WorkingState/&lt;br&gt;&lt;strike&gt;BaseState&lt;/strike&gt;" style="rounded=1;whiteSpace=wrap;html=1;strokeColor=default;fillColor=#B9E0A5;" vertex="1" parent="1">
          <mxGeometry x="600" y="1530" width="120" height="60" as="geometry" />
        </mxCell>
        <mxCell id="CIBMW8DHXz47iNcufc1j-47" value="idle/imaging/recording" style="rounded=1;whiteSpace=wrap;html=1;strokeColor=default;fillColor=#B9E0A5;" vertex="1" parent="1">
          <mxGeometry x="570" y="1634" width="120" height="60" as="geometry" />
        </mxCell>
        <mxCell id="CIBMW8DHXz47iNcufc1j-48" value="" style="endArrow=classic;html=1;rounded=0;exitX=0.5;exitY=0;exitDx=0;exitDy=0;" edge="1" parent="1" source="CIBMW8DHXz47iNcufc1j-47" target="CIBMW8DHXz47iNcufc1j-46">
          <mxGeometry width="50" height="50" relative="1" as="geometry">
            <mxPoint x="630" y="1650" as="sourcePoint" />
            <mxPoint x="680" y="1600" as="targetPoint" />
          </mxGeometry>
        </mxCell>
        <mxCell id="CIBMW8DHXz47iNcufc1j-49" style="edgeStyle=orthogonalEdgeStyle;rounded=0;orthogonalLoop=1;jettySize=auto;html=1;entryX=0;entryY=0.75;entryDx=0;entryDy=0;" edge="1" parent="1" source="CIBMW8DHXz47iNcufc1j-53" target="CIBMW8DHXz47iNcufc1j-36">
          <mxGeometry relative="1" as="geometry" />
        </mxCell>
        <mxCell id="CIBMW8DHXz47iNcufc1j-50" value="depend on" style="edgeStyle=orthogonalEdgeStyle;rounded=0;orthogonalLoop=1;jettySize=auto;html=1;" edge="1" parent="1" source="CIBMW8DHXz47iNcufc1j-53" target="CIBMW8DHXz47iNcufc1j-38">
          <mxGeometry relative="1" as="geometry" />
        </mxCell>
        <mxCell id="CIBMW8DHXz47iNcufc1j-51" value="create and has&amp;nbsp;" style="edgeStyle=orthogonalEdgeStyle;rounded=0;orthogonalLoop=1;jettySize=auto;html=1;exitX=1;exitY=0.25;exitDx=0;exitDy=0;" edge="1" parent="1" source="CIBMW8DHXz47iNcufc1j-53" target="CIBMW8DHXz47iNcufc1j-41">
          <mxGeometry relative="1" as="geometry" />
        </mxCell>
        <mxCell id="CIBMW8DHXz47iNcufc1j-52" value="need to send cmd to PIU" style="edgeStyle=orthogonalEdgeStyle;rounded=0;orthogonalLoop=1;jettySize=auto;html=1;exitX=1;exitY=0.5;exitDx=0;exitDy=0;" edge="1" parent="1" source="CIBMW8DHXz47iNcufc1j-53" target="CIBMW8DHXz47iNcufc1j-56">
          <mxGeometry relative="1" as="geometry" />
        </mxCell>
        <mxCell id="CIBMW8DHXz47iNcufc1j-53" value="MsgDbusController" style="rounded=1;whiteSpace=wrap;html=1;" vertex="1" parent="1">
          <mxGeometry x="105" y="1131" width="120" height="60" as="geometry" />
        </mxCell>
        <mxCell id="CIBMW8DHXz47iNcufc1j-54" value="use" style="edgeStyle=orthogonalEdgeStyle;rounded=0;orthogonalLoop=1;jettySize=auto;html=1;exitX=0.25;exitY=0;exitDx=0;exitDy=0;entryX=1;entryY=0.25;entryDx=0;entryDy=0;" edge="1" parent="1" source="CIBMW8DHXz47iNcufc1j-56" target="CIBMW8DHXz47iNcufc1j-36">
          <mxGeometry relative="1" as="geometry" />
        </mxCell>
        <mxCell id="CIBMW8DHXz47iNcufc1j-55" style="edgeStyle=orthogonalEdgeStyle;rounded=0;orthogonalLoop=1;jettySize=auto;html=1;entryX=0.75;entryY=0;entryDx=0;entryDy=0;exitX=0.25;exitY=1;exitDx=0;exitDy=0;" edge="1" parent="1" source="CIBMW8DHXz47iNcufc1j-56" target="CIBMW8DHXz47iNcufc1j-45">
          <mxGeometry relative="1" as="geometry" />
        </mxCell>
        <mxCell id="CIBMW8DHXz47iNcufc1j-56" value="IGTLPiuServer" style="rounded=1;whiteSpace=wrap;html=1;fillColor=#fff2cc;strokeColor=#d6b656;" vertex="1" parent="1">
          <mxGeometry x="456" y="1257" width="120" height="60" as="geometry" />
        </mxCell>
        <mxCell id="CIBMW8DHXz47iNcufc1j-57" value="IgtlSenderInterface" style="rounded=1;whiteSpace=wrap;html=1;" vertex="1" parent="1">
          <mxGeometry x="546" y="1167" width="120" height="60" as="geometry" />
        </mxCell>
        <mxCell id="CIBMW8DHXz47iNcufc1j-58" value="" style="endArrow=block;dashed=1;endFill=0;endSize=12;html=1;rounded=0;entryX=0.75;entryY=0;entryDx=0;entryDy=0;" edge="1" parent="1" source="CIBMW8DHXz47iNcufc1j-57" target="CIBMW8DHXz47iNcufc1j-56">
          <mxGeometry width="160" relative="1" as="geometry">
            <mxPoint x="681" y="1302" as="sourcePoint" />
            <mxPoint x="841" y="1302" as="targetPoint" />
          </mxGeometry>
        </mxCell>
        <mxCell id="CIBMW8DHXz47iNcufc1j-59" value="" style="ellipse;fillColor=strokeColor;html=1;" vertex="1" parent="1">
          <mxGeometry x="890" y="100" width="30" height="30" as="geometry" />
        </mxCell>
        <mxCell id="CIBMW8DHXz47iNcufc1j-60" value="" style="ellipse;html=1;shape=endState;fillColor=strokeColor;" vertex="1" parent="1">
          <mxGeometry x="890" y="330" width="30" height="30" as="geometry" />
        </mxCell>
      </root>
    </mxGraphModel>
  </diagram>
</mxfile>
